solid Exported from Blender-2.79 (sub 0)
facet normal 0.000000 0.000000 1.000000
outer loop
vertex -2.000000 -1.000000 0.000000
vertex -1.333333 -0.333333 0.000000
vertex -1.333333 0.333333 0.000000
endloop
endfacet
facet normal 0.000000 0.000000 1.000000
outer loop
vertex -1.333333 -0.333333 0.000000
vertex -2.000000 -1.000000 0.000000
vertex -0.666667 -0.333333 0.000000
endloop
endfacet
facet normal 0.000000 0.000000 1.000000
outer loop
vertex -0.666667 -0.333333 0.000000
vertex 0.646447 -0.353553 0.000000
vertex 0.500000 0.000000 0.000000
endloop
endfacet
facet normal 0.000000 0.000000 1.000000
outer loop
vertex 1.000000 -0.500000 0.000000
vertex 0.646447 -0.353553 0.000000
vertex -0.666667 -0.333333 0.000000
endloop
endfacet
facet normal 0.000000 0.000000 1.000000
outer loop
vertex -0.666667 -0.333333 0.000000
vertex -2.000000 -1.000000 0.000000
vertex 1.000000 -0.500000 0.000000
endloop
endfacet
facet normal 0.000000 0.000000 1.000000
outer loop
vertex -2.000000 1.000000 0.000000
vertex -1.333333 0.333333 0.000000
vertex -0.666667 0.333333 0.000000
endloop
endfacet
facet normal 0.000000 0.000000 1.000000
outer loop
vertex -1.333333 0.333333 0.000000
vertex -2.000000 1.000000 0.000000
vertex -2.000000 -1.000000 0.000000
endloop
endfacet
facet normal 0.000000 0.000000 1.000000
outer loop
vertex -2.000000 1.000000 0.000000
vertex -0.666667 0.333333 0.000000
vertex 1.000000 0.500000 0.000000
endloop
endfacet
facet normal 0.000000 0.000000 1.000000
outer loop
vertex -0.666667 -0.333333 0.000000
vertex 0.500000 0.000000 0.000000
vertex -0.666667 0.333333 0.000000
endloop
endfacet
facet normal 0.000000 0.000000 1.000000
outer loop
vertex 0.646447 0.353553 0.000000
vertex -0.666667 0.333333 0.000000
vertex 0.500000 0.000000 0.000000
endloop
endfacet
facet normal 0.000000 0.000000 1.000000
outer loop
vertex 1.353553 -0.353553 0.000000
vertex 1.000000 -0.500000 0.000000
vertex 2.000000 -1.000000 0.000000
endloop
endfacet
facet normal 0.000000 0.000000 1.000000
outer loop
vertex 1.500000 0.000000 0.000000
vertex 2.000000 -1.000000 0.000000
vertex 2.000000 1.000000 0.000000
endloop
endfacet
facet normal 0.000000 0.000000 1.000000
outer loop
vertex 2.000000 -1.000000 0.000000
vertex 1.500000 0.000000 0.000000
vertex 1.353553 -0.353553 0.000000
endloop
endfacet
facet normal 0.000000 0.000000 1.000000
outer loop
vertex 1.000000 -0.500000 0.000000
vertex -2.000000 -1.000000 0.000000
vertex 2.000000 -1.000000 0.000000
endloop
endfacet
facet normal 0.000000 0.000000 1.000000
outer loop
vertex 1.000000 0.500000 0.000000
vertex 2.000000 1.000000 0.000000
vertex -2.000000 1.000000 0.000000
endloop
endfacet
facet normal 0.000000 0.000000 1.000000
outer loop
vertex 1.353553 0.353553 0.000000
vertex 2.000000 1.000000 0.000000
vertex 1.000000 0.500000 0.000000
endloop
endfacet
facet normal 0.000000 0.000000 1.000000
outer loop
vertex 2.000000 1.000000 0.000000
vertex 1.353553 0.353553 0.000000
vertex 1.500000 0.000000 0.000000
endloop
endfacet
facet normal 0.000000 0.000000 1.000000
outer loop
vertex 1.000000 0.500000 0.000000
vertex -0.666667 0.333333 0.000000
vertex 0.646447 0.353553 0.000000
endloop
endfacet
endsolid Exported from Blender-2.79 (sub 0)
